<?xml version="1.0" standalone="no"?>
<!DOCTYPE svg PUBLIC "-//W3C//DTD SVG 20010904//EN"
 "http://www.w3.org/TR/2001/REC-SVG-20010904/DTD/svg10.dtd">
<svg version="1.0" xmlns="http://www.w3.org/2000/svg"
 width="4000.000000pt" height="4000.000000pt" viewBox="0 0 4000.000000 4000.000000"
 preserveAspectRatio="xMidYMid meet">
<metadata>
Created by potrace 1.14, written by Peter Selinger 2001-2017
</metadata>
<g transform="translate(0.000000,4000.000000) scale(0.100000,-0.100000)"
fill="#000000" stroke="none">
<path d="M10767 30344 c-1 -1 -108 -5 -237 -9 -129 -4 -255 -8 -280 -10 -25
-2 -88 -6 -140 -9 -52 -4 -115 -9 -140 -11 -90 -8 -166 -16 -210 -21 -25 -2
-65 -7 -90 -9 -25 -3 -58 -7 -75 -9 -16 -3 -57 -8 -90 -12 -33 -3 -62 -8 -65
-9 -3 -2 -33 -7 -65 -10 -33 -4 -78 -11 -100 -15 -22 -5 -60 -12 -85 -15 -43
-6 -374 -71 -415 -81 -23 -6 -51 -12 -80 -18 -11 -2 -40 -9 -65 -16 -25 -7
-52 -13 -61 -15 -101 -20 -497 -138 -704 -211 -429 -150 -992 -410 -1276 -590
-21 -13 -41 -24 -44 -24 -12 0 -352 -223 -470 -309 -276 -200 -482 -377 -731
-625 -207 -208 -336 -354 -503 -571 -107 -138 -324 -455 -374 -547 -14 -25
-37 -65 -51 -87 -86 -135 -270 -522 -355 -746 -23 -60 -48 -126 -56 -145 -63
-157 -204 -679 -241 -890 -2 -14 -7 -41 -10 -60 -4 -19 -8 -44 -10 -55 -1 -11
-9 -63 -18 -115 -8 -52 -17 -114 -21 -137 -3 -24 -7 -60 -10 -80 -8 -63 -13
-114 -21 -198 -4 -44 -8 -93 -10 -110 -18 -177 -25 -839 -11 -1050 12 -168 17
-238 22 -280 3 -22 8 -65 10 -95 6 -64 28 -222 40 -290 2 -14 7 -41 9 -60 65
-432 216 -942 408 -1380 96 -218 331 -649 390 -716 10 -11 18 -23 18 -27 0 -4
16 -30 35 -57 19 -28 51 -74 72 -102 308 -443 721 -873 1183 -1235 41 -32 86
-66 100 -75 35 -24 163 -116 175 -125 57 -46 416 -265 570 -348 95 -51 362
-185 370 -185 2 0 37 -16 77 -35 118 -55 270 -118 483 -197 178 -67 460 -162
467 -158 2 1 17 -4 33 -10 17 -7 37 -14 45 -16 8 -2 96 -26 195 -53 257 -69
634 -152 850 -185 63 -10 121 -19 140 -21 11 -2 58 -8 105 -15 47 -6 96 -13
110 -15 24 -4 56 -7 180 -20 30 -3 71 -8 90 -10 42 -5 176 -16 245 -20 28 -2
95 -6 150 -9 55 -4 147 -9 205 -12 126 -6 732 -6 880 0 137 6 336 17 380 21
19 2 76 6 125 10 50 3 101 8 115 10 14 2 54 7 90 10 36 3 81 8 100 10 19 2 60
7 90 10 30 3 66 8 80 10 14 3 42 7 64 10 70 8 120 16 211 31 50 8 106 17 125
20 19 3 42 7 50 9 8 3 33 7 54 11 22 3 69 12 105 20 36 8 111 24 166 35 55 11
161 36 235 55 74 20 142 37 150 39 210 54 562 169 798 261 321 126 735 323
935 445 26 16 49 29 52 29 3 0 29 16 59 35 30 19 58 35 61 35 3 0 11 4 18 10
7 5 95 65 197 132 227 152 472 341 650 502 65 60 357 352 415 416 430 476 778
1031 1000 1595 64 161 168 467 181 530 1 6 11 45 23 88 13 43 24 86 26 95 2 9
9 40 15 67 6 28 14 59 16 70 8 33 44 217 50 254 3 18 8 43 10 55 2 11 7 41 10
66 3 25 7 47 9 50 2 3 6 34 10 70 4 36 9 74 11 85 2 11 6 47 9 80 9 91 15 156
20 195 20 175 28 835 12 1015 -12 138 -28 289 -32 305 -1 3 -5 32 -10 65 -5
33 -9 62 -10 65 -1 3 -4 25 -8 50 -4 25 -12 63 -17 85 -5 22 -18 83 -30 135
-126 558 -369 1075 -768 1635 -47 66 -88 122 -92 125 -3 3 -32 39 -65 80 -230
288 -569 634 -855 870 -41 34 -87 72 -101 85 -14 12 -77 62 -140 109 -63 48
-121 93 -130 100 -30 25 -284 202 -336 235 -29 18 -53 35 -53 37 0 3 -3 4 245
-86 758 -277 1749 -581 2165 -665 8 -2 83 -17 165 -34 147 -29 252 -49 420
-76 17 -3 50 -7 75 -10 25 -3 56 -8 70 -10 63 -10 251 -33 336 -41 32 -2 77
-7 99 -9 22 -2 81 -6 130 -10 50 -3 119 -8 155 -11 36 -2 197 -7 359 -9 231
-4 291 -2 283 8 -6 7 -9 503 -9 1350 0 1101 3 1340 13 1344 10 3 13 20 10 52
l-3 46 -169 -2 c-93 0 -344 -4 -559 -7 -458 -8 -824 -14 -1320 -21 -198 -3
-486 -8 -640 -10 -154 -3 -440 -7 -635 -10 -195 -3 -483 -7 -640 -10 -157 -3
-451 -7 -655 -10 -203 -3 -489 -7 -635 -10 -146 -2 -429 -7 -630 -10 -201 -3
-482 -8 -624 -10 -242 -4 -263 -3 -315 16 -282 103 -529 166 -916 234 -89 16
-126 21 -235 36 -41 6 -85 12 -97 14 -12 2 -57 7 -100 10 -43 4 -87 9 -98 11
-11 2 -60 6 -110 10 -49 3 -106 7 -125 9 -65 7 -627 23 -633 19z m528 -2667
c22 -3 71 -8 108 -11 91 -8 290 -34 352 -46 28 -5 64 -11 80 -14 225 -37 645
-157 840 -241 31 -13 69 -30 185 -81 429 -189 876 -524 1180 -884 30 -36 57
-67 60 -70 22 -20 165 -221 231 -324 155 -243 318 -603 385 -851 2 -5 10 -35
18 -65 28 -98 71 -300 81 -373 2 -16 6 -40 9 -55 9 -42 14 -81 22 -157 3 -38
8 -77 9 -85 9 -49 18 -281 19 -450 0 -242 -13 -451 -39 -625 -3 -16 -7 -46 -9
-65 -25 -184 -96 -463 -167 -661 -95 -267 -202 -475 -368 -719 -55 -81 -145
-204 -161 -220 -3 -3 -30 -34 -60 -70 -139 -165 -378 -387 -560 -521 -248
-182 -564 -356 -840 -463 -52 -21 -104 -41 -115 -46 -138 -57 -518 -159 -730
-196 -49 -8 -101 -17 -115 -19 -14 -3 -45 -7 -70 -10 -25 -3 -54 -8 -66 -10
-11 -3 -52 -7 -90 -10 -38 -3 -84 -8 -102 -10 -214 -31 -841 -25 -1147 10
-112 13 -151 18 -285 42 -80 13 -154 26 -165 28 -11 1 -38 8 -60 13 -22 6 -51
13 -65 16 -14 3 -78 19 -143 36 -442 116 -897 328 -1270 593 -281 200 -552
471 -769 767 -187 256 -368 614 -452 895 -15 50 -32 104 -37 120 -30 93 -92
400 -104 515 -2 19 -6 49 -9 65 -2 17 -7 68 -11 115 -3 47 -8 103 -11 124 -8
58 -8 517 0 611 11 140 17 199 22 240 3 22 7 54 8 70 4 34 17 119 22 150 2 11
9 47 15 80 119 675 444 1294 930 1772 63 61 137 130 164 153 28 23 61 52 75
64 14 11 43 34 65 50 22 17 42 32 45 35 19 21 237 163 350 228 111 64 246 134
255 132 4 0 17 6 29 15 37 24 255 113 407 167 208 73 512 152 704 183 17 3 44
7 60 10 87 15 167 26 230 32 39 3 79 8 89 10 10 2 67 6 125 10 58 3 108 8 110
10 6 5 688 -3 736 -9z"/>
<path d="M20106 29948 c16 -18 31 -35 34 -38 3 -3 30 -34 60 -70 30 -36 57
-67 61 -70 3 -3 111 -126 240 -275 288 -332 291 -335 309 -355 8 -9 40 -45 70
-81 30 -35 59 -69 65 -75 5 -6 30 -35 55 -64 25 -29 56 -65 70 -80 14 -15 45
-51 70 -80 25 -29 50 -58 55 -64 6 -6 39 -45 75 -86 36 -41 67 -77 70 -80 3
-3 48 -54 100 -115 52 -60 109 -126 126 -145 44 -49 159 -181 304 -350 69 -79
132 -152 140 -160 15 -16 36 -41 200 -230 45 -52 97 -111 114 -130 17 -20 58
-67 91 -105 33 -39 64 -75 70 -81 5 -6 33 -37 60 -69 28 -32 55 -63 60 -69 6
-6 57 -65 114 -131 57 -66 128 -147 156 -180 29 -33 103 -118 165 -190 62 -71
116 -132 119 -135 3 -3 30 -34 60 -70 30 -36 59 -69 65 -75 6 -5 36 -39 66
-75 61 -72 107 -125 130 -150 17 -18 113 -128 151 -174 13 -16 35 -41 49 -56
14 -15 43 -49 65 -75 22 -27 47 -56 56 -64 8 -9 73 -83 144 -166 71 -82 132
-152 135 -155 3 -3 50 -57 104 -120 55 -63 104 -120 110 -125 6 -6 36 -39 66
-75 30 -36 59 -70 65 -76 5 -6 33 -38 61 -70 28 -33 87 -100 130 -150 43 -49
104 -119 134 -154 30 -35 60 -68 65 -74 6 -6 53 -60 105 -121 84 -97 131 -152
165 -189 6 -6 51 -58 100 -115 50 -58 101 -116 114 -130 13 -14 37 -43 55 -65
17 -21 42 -50 56 -65 14 -14 50 -55 81 -91 64 -76 397 -458 443 -510 17 -19
46 -53 65 -75 35 -42 82 -95 220 -253 44 -51 81 -98 81 -103 0 -6 -30 -45 -66
-87 -94 -109 -101 -117 -184 -217 -41 -49 -77 -92 -80 -95 -6 -5 -202 -236
-315 -370 -38 -46 -84 -100 -101 -119 -17 -20 -174 -205 -349 -411 -174 -206
-327 -386 -339 -400 -12 -14 -98 -115 -191 -225 -93 -110 -196 -232 -229 -271
-34 -39 -81 -94 -106 -124 -46 -54 -165 -195 -204 -240 -11 -14 -57 -68 -101
-120 -44 -52 -89 -106 -101 -120 -45 -51 -110 -128 -149 -175 -22 -27 -45 -53
-50 -59 -6 -6 -102 -119 -214 -251 -111 -132 -213 -251 -225 -265 -12 -14
-172 -203 -356 -420 -711 -839 -1022 -1207 -1060 -1250 -21 -25 -117 -137
-213 -250 -170 -201 -772 -911 -847 -1000 -21 -25 -54 -63 -72 -84 -53 -63
-278 -327 -312 -367 -17 -20 -49 -58 -71 -85 -22 -26 -93 -110 -157 -186 -65
-75 -118 -140 -118 -143 0 -3 890 -5 1978 -5 l1978 0 139 178 c77 97 145 184
152 192 6 8 93 119 193 245 100 127 188 239 197 250 9 11 79 98 154 195 76 96
229 290 340 430 111 140 213 270 228 289 14 19 55 71 91 116 36 45 77 97 92
116 58 74 169 215 181 229 7 8 35 44 62 80 28 35 58 73 67 85 9 11 49 61 88
110 39 50 81 104 95 120 21 26 202 256 351 445 153 195 336 427 347 440 15 19
377 478 852 1080 464 589 449 570 457 570 5 0 188 -218 273 -325 17 -21 35
-43 40 -49 6 -6 62 -74 125 -151 63 -77 149 -181 190 -230 97 -118 309 -375
588 -715 39 -46 98 -118 297 -360 137 -165 122 -147 251 -305 54 -66 101 -122
104 -125 3 -3 32 -39 65 -80 33 -41 62 -77 65 -80 3 -3 25 -30 50 -60 25 -30
53 -64 62 -75 31 -38 413 -501 448 -544 19 -24 40 -48 45 -55 6 -6 39 -47 75
-91 36 -44 69 -85 75 -91 5 -6 24 -28 40 -48 17 -21 42 -52 56 -70 23 -27 177
-213 274 -331 18 -22 79 -97 136 -166 57 -69 119 -144 136 -165 18 -22 46 -56
62 -75 16 -19 167 -203 337 -409 169 -206 310 -377 314 -380 3 -3 32 -39 65
-80 33 -41 67 -82 75 -92 14 -17 111 -18 1997 -18 l1983 0 -77 93 c-43 50 -80
94 -83 97 -6 5 -123 142 -155 181 -51 62 -240 285 -245 289 -3 3 -66 77 -140
165 -74 88 -177 210 -229 270 -153 180 -170 200 -386 455 -114 135 -217 256
-229 270 -28 32 -333 392 -411 484 -103 123 -163 193 -188 223 -14 15 -130
152 -258 303 -286 338 -398 470 -453 535 -24 28 -175 205 -335 395 -161 190
-312 368 -336 395 -23 28 -97 115 -164 195 -68 80 -142 168 -166 195 -23 28
-56 66 -71 85 -16 19 -41 48 -55 65 -15 16 -122 143 -239 280 -116 138 -222
261 -234 275 -11 14 -71 84 -131 155 -60 72 -119 141 -131 155 -12 14 -116
135 -230 270 -114 135 -226 268 -249 295 -24 28 -110 129 -191 225 -174 205
-149 176 -311 366 -70 83 -147 173 -169 200 -47 56 -275 325 -339 399 -23 28
-65 77 -93 111 l-51 61 37 44 c20 24 39 46 42 49 5 4 146 171 191 225 15 18
249 293 303 355 11 14 44 52 71 85 28 33 52 62 55 65 3 3 82 95 175 205 94
110 180 211 191 225 12 14 54 63 94 110 40 47 84 99 99 115 14 17 49 57 76 90
28 33 52 62 55 65 3 3 55 64 116 135 236 278 459 541 480 565 22 25 679 798
1003 1180 157 184 203 238 226 264 6 6 33 38 61 71 27 33 115 137 195 230 80
94 248 292 374 440 126 149 232 272 235 275 3 3 25 30 50 60 25 30 57 68 72
85 15 16 70 82 124 145 53 63 118 140 144 170 26 30 105 123 175 205 70 83
200 235 289 339 88 104 175 205 191 225 17 21 68 82 115 136 70 82 188 220
396 465 12 14 90 105 173 202 83 98 151 180 151 183 0 3 -883 5 -1963 5
l-1963 0 -504 -636 c-278 -350 -579 -729 -668 -843 -90 -113 -176 -222 -192
-241 -15 -19 -67 -84 -115 -145 -100 -127 -89 -113 -282 -356 -259 -325 -548
-690 -638 -804 -48 -60 -99 -126 -115 -145 -28 -35 -102 -128 -152 -191 -14
-19 -80 -101 -145 -184 -330 -416 -513 -647 -563 -710 -30 -38 -57 -72 -60
-75 -3 -3 -48 -59 -100 -125 -52 -66 -146 -184 -208 -263 l-114 -143 -37 42
c-20 24 -45 53 -56 65 -11 12 -38 43 -60 70 -67 80 -544 645 -595 704 -26 30
-163 192 -305 360 -141 168 -276 328 -299 355 -24 28 -157 185 -297 350 -139
165 -263 311 -275 325 -18 21 -174 205 -365 430 -192 228 -408 483 -439 520
-80 93 -103 121 -305 360 -114 135 -217 256 -229 270 -12 14 -95 113 -186 220
-90 107 -169 200 -175 206 -5 6 -28 33 -50 59 -73 88 -167 200 -184 217 -9 9
-70 82 -136 162 l-120 145 -1999 0 -2000 1 30 -32z"/>
<path d="M7827 18083 c-1 -1 -69 -4 -152 -7 -82 -4 -177 -8 -210 -11 -33 -2
-96 -7 -140 -10 -44 -4 -91 -8 -105 -10 -14 -2 -61 -6 -105 -10 -44 -4 -87 -8
-95 -10 -9 -2 -45 -6 -81 -9 -36 -4 -76 -8 -90 -11 -13 -2 -46 -6 -74 -10 -42
-5 -112 -16 -320 -51 -11 -2 -31 -5 -45 -8 -14 -3 -37 -7 -53 -10 -15 -3 -35
-7 -45 -10 -9 -3 -28 -7 -42 -10 -14 -2 -45 -9 -70 -16 -25 -7 -52 -13 -60
-15 -109 -23 -389 -113 -560 -182 -144 -58 -438 -205 -493 -247 -19 -14 -37
-26 -40 -26 -6 0 -113 -70 -147 -97 -269 -207 -395 -341 -533 -563 -101 -164
-200 -419 -245 -630 -20 -94 -24 -117 -37 -215 -4 -27 -8 -61 -10 -74 -16
-103 -22 -459 -10 -578 4 -37 8 -81 10 -98 24 -244 108 -531 221 -758 33 -66
132 -235 144 -247 3 -3 30 -39 61 -80 175 -235 428 -459 709 -627 365 -219
877 -393 1433 -487 15 -3 35 -7 45 -10 9 -2 40 -7 67 -11 28 -3 77 -10 110
-15 102 -16 207 -29 276 -35 30 -3 72 -7 94 -10 22 -3 69 -7 105 -10 36 -3 85
-7 110 -10 25 -2 97 -7 160 -10 63 -4 149 -9 190 -12 41 -3 1111 -6 2377 -8
2088 -3 2518 -6 2662 -20 25 -2 75 -7 111 -10 136 -12 199 -19 260 -30 28 -5
90 -14 135 -20 205 -28 561 -124 784 -211 399 -156 718 -372 930 -632 240
-295 409 -743 456 -1212 4 -36 9 -78 12 -95 3 -16 7 -235 10 -485 3 -250 7
-457 9 -459 6 -7 3264 -5 3271 2 15 16 5 1587 -12 1747 -2 19 -6 74 -10 121
-3 47 -7 95 -10 107 -2 11 -7 52 -10 89 -4 37 -8 75 -10 83 -4 13 -11 64 -20
125 -10 79 -54 292 -86 424 -37 152 -131 438 -189 576 -181 430 -422 785 -758
1116 -172 169 -273 255 -432 370 -41 29 -76 57 -78 61 -2 5 -7 8 -12 8 -4 0
-48 26 -97 58 -140 91 -202 127 -348 202 -99 51 -356 168 -385 176 -8 2 -75
26 -148 54 -74 28 -227 78 -340 111 -290 84 -303 88 -341 94 -19 3 -37 8 -41
10 -3 2 -17 6 -31 9 -13 2 -85 18 -159 35 -74 17 -173 38 -220 47 -130 23
-192 34 -230 40 -19 3 -46 7 -60 10 -14 2 -41 7 -60 10 -19 3 -46 7 -60 9 -14
3 -61 9 -105 15 -44 6 -91 13 -105 15 -14 2 -47 6 -75 9 -27 4 -66 8 -85 11
-58 7 -142 15 -320 30 -41 3 -91 8 -110 10 -19 2 -87 7 -150 10 -63 4 -140 8
-170 10 -230 13 -899 18 -2855 20 -1693 1 -2270 5 -2330 14 -262 39 -471 108
-612 203 -59 39 -167 146 -216 211 -54 73 -133 241 -159 337 -18 68 -22 113
-23 225 0 77 3 156 7 175 4 19 10 45 12 56 8 41 68 173 99 221 99 150 234 264
426 359 62 31 118 57 125 59 6 1 23 7 38 13 82 34 314 94 528 138 69 14 132
27 140 29 15 3 155 25 195 30 11 2 34 6 50 9 25 4 77 11 220 31 20 2 170 20
270 31 27 3 70 8 95 10 25 2 63 6 86 8 22 2 78 7 125 11 46 3 100 8 119 10 19
2 82 7 140 11 58 4 123 8 145 9 22 2 105 6 185 10 80 5 161 9 180 10 19 2 75
3 124 4 157 2 86 11 -130 16 -115 3 -236 7 -269 10 -33 2 -105 6 -160 10 -55
4 -116 8 -135 10 -19 2 -69 6 -110 10 -41 4 -86 8 -100 10 -14 1 -59 6 -100 9
-41 4 -82 9 -90 11 -8 2 -37 7 -65 10 -70 7 -121 14 -185 25 -30 5 -75 12
-100 15 -25 3 -52 8 -60 10 -8 2 -33 6 -55 10 -22 3 -47 7 -55 10 -8 2 -33 6
-55 10 -122 17 -526 110 -725 166 -108 30 -126 33 -278 33 -90 1 -164 0 -165
-1z"/>
</g>
</svg>
