<svg id="Layer_1" data-name="Layer 1" xmlns="http://www.w3.org/2000/svg" viewBox="0 0 1438 329"><defs><style>.cls-1{fill:#005b97;}</style></defs><title>LightSVG</title><path d="M108.07,211.25l-15-2.89q-5-.44-9.78-.44a89.07,89.07,0,0,0,24.79,3.46A.08.08,0,0,0,108.07,211.25ZM194.22,95.89l-64-.28h0a88.65,88.65,0,0,0-10.31-2.2,73,73,0,0,0-11.13-.82Q89,92.59,73.44,100a57.45,57.45,0,0,0-24.2,20.9q-8.67,13.49-8.66,31.9t8.93,31.63A56.3,56.3,0,0,0,74,204.51a75.11,75.11,0,0,0,9.33,3.41,89.07,89.07,0,0,0,24.79,3.46h.67q20.07,0,35.33-6.88A55.43,55.43,0,0,0,168,184.71q8.66-12.92,8.66-31.07a41.38,41.38,0,0,0-4.4-19.25,52.94,52.94,0,0,0-12-15.27,74.07,74.07,0,0,0-9.09-6.92q7.53,2.86,16.51,5.55a85.84,85.84,0,0,0,26.46,3.71.08.08,0,0,0,.08-.08V96A.08.08,0,0,0,194.22,95.89Zm-52.44,75.62a32.48,32.48,0,0,1-13.48,11.83,44.27,44.27,0,0,1-19.52,4.12,44.28,44.28,0,0,1-19.53-4.12,32.45,32.45,0,0,1-13.47-11.83q-4.95-7.69-5-18.7,0-11.26,5-19.11a31.92,31.92,0,0,1,13.61-12,44.53,44.53,0,0,1,19.39-4.13,44.27,44.27,0,0,1,19.52,4.13,31.89,31.89,0,0,1,13.48,12.1q5,8,4.95,19T141.78,171.51Z"/><path d="M183.58,276V288.3a.09.09,0,0,1-.09.09H152.86a.08.08,0,0,1-.08-.09v-6.24q0-13.47-8-19t-22.27-5.5H85.4a86,86,0,0,1-18.84-1.79,33.86,33.86,0,0,1-12.51-5.23,21.58,21.58,0,0,1-6.87-8,22.67,22.67,0,0,1-2.2-10q0-11,6.73-16.5t17.88-7.15a93,93,0,0,1,13.73-1,89.07,89.07,0,0,0,24.79,3.46.06.06,0,0,1-.06,0q-15.69.59-23.89,2.86-5.93,1.66-7.66,5.58a9,9,0,0,0,3.88,11.06,17.11,17.11,0,0,0,8.05,1.65h39.05q16.77,0,29.42,4T176.56,250Q183.58,259.52,183.58,276Z"/><path d="M221.52,40.61h30.53v192H221.52Z"/><path d="M362.05,235.59q-22.83,0-41-8.25a66.06,66.06,0,0,1-28.6-24.2Q282,187.2,282,164.36q0-22.55,10.45-38.64a67.62,67.62,0,0,1,28.6-24.61q18.15-8.52,41-8.52t40.7,8.52a67.09,67.09,0,0,1,28.19,24.61q10.31,16.1,10.31,38.64,0,22.83-10.31,38.78a65.52,65.52,0,0,1-28.19,24.2Q384.87,235.59,362.05,235.59Zm0-25a55.74,55.74,0,0,0,24.2-5.22,40.65,40.65,0,0,0,17.46-15.68q6.46-10.44,6.46-25.3t-6.46-25.3A43.75,43.75,0,0,0,386.39,123a52.18,52.18,0,0,0-24.34-5.63,53.91,53.91,0,0,0-24.48,5.5,44.37,44.37,0,0,0-17.73,15.95q-6.75,10.46-6.74,25.57,0,14.85,6.6,25.3a41.3,41.3,0,0,0,17.74,15.68A57.23,57.23,0,0,0,362.05,210.56Z"/><path d="M504.22,40.61v159.5q0,7.42-.82,16.78t-1.65,15.67H473.42V40.61Zm57.48,195q-17.06,0-28.74-6.74a54.23,54.23,0,0,1-18.7-17.46,76.31,76.31,0,0,1-10.18-23.24,97,97,0,0,1-3.16-23.79,122.82,122.82,0,0,1,3-28.05,63.08,63.08,0,0,1,10-22.69,48.55,48.55,0,0,1,18.7-15.4q11.69-5.62,29-5.63,19.8,0,35.06,9.07A65.94,65.94,0,0,1,621,126.82q8.92,16.1,8.94,37.54,0,20.91-9.08,37a66.11,66.11,0,0,1-59.12,34.24Zm-9.35-25.3q14,0,24.33-5.78a40.83,40.83,0,0,0,16.09-16.22,48.65,48.65,0,0,0,5.78-23.93q0-20.62-12.1-33.69t-34.1-13.06q-15.14,0-26,5.78a39.28,39.28,0,0,0-16.5,16.08q-5.64,10.32-5.64,24.89A49,49,0,0,0,509.86,188a40.09,40.09,0,0,0,16.36,16.36Q536.94,210.3,552.35,210.29Z"/><path d="M717.9,235.59a67,67,0,0,1-59-34.24q-9.23-16.09-9.21-37,0-21.45,9.35-37.54a67.29,67.29,0,0,1,25.3-25.16,71,71,0,0,1,35.75-9.07q22,0,34.92,9.62a52.29,52.29,0,0,1,18.43,25.85,112.84,112.84,0,0,1,5.5,36.3,93.33,93.33,0,0,1-3.3,23.79,78.9,78.9,0,0,1-10.32,23.24,54.31,54.31,0,0,1-18.7,17.46Q734.95,235.59,717.9,235.59Zm9.35-25.3q15.39,0,26.26-5.92A40,40,0,0,0,770,188a49.09,49.09,0,0,0,5.64-23.65q0-14.56-5.78-24.89a39.6,39.6,0,0,0-16.5-16q-10.73-5.62-26.12-5.63-22,0-34.1,12.92t-12.1,33.55A47.66,47.66,0,0,0,687,188.29a41.49,41.49,0,0,0,16.36,16.22A48.65,48.65,0,0,0,727.25,210.29Zm48.4-114.68h30.8v137h-28.6q-1.11-10.44-1.65-18t-.55-14.44Z"/><path d="M842.74,40.61h30.53v192H842.74Z"/><path d="M910.39,95.61h30.53v137H910.39Zm88.28-3a69.67,69.67,0,0,1,21.86,3.3,46.6,46.6,0,0,1,17.32,10,45.46,45.46,0,0,1,11.28,16.64q4,9.9,4,23.38v86.62h-30.53V152q0-16.77-8.11-24.89T989,119A51.53,51.53,0,0,0,965,124.62a52.38,52.38,0,0,0-17.74,14.58,38.11,38.11,0,0,0-8,19.66L939,144a60.28,60.28,0,0,1,18.43-35.89,56.07,56.07,0,0,1,18.15-11.41A62.35,62.35,0,0,1,998.67,92.59Z"/><path d="M1201.34,187.46h29.43a52.19,52.19,0,0,1-10.87,24.89q-8.65,10.86-23.51,17.05t-35.47,6.19q-23.39,0-41.81-8.67a68.4,68.4,0,0,1-28.87-24.61q-10.46-15.94-10.45-37.95,0-21.72,10.18-38a67.39,67.39,0,0,1,28.18-25q18-8.81,41.67-8.8,24.47,0,40.83,8.66A54.21,54.21,0,0,1,1225,127.1q8,17.19,6.6,43.31H1110.86a46.5,46.5,0,0,0,7.57,20.76,41,41,0,0,0,16.91,14.3q10.73,5.1,25,5.09,16,0,26.82-6.32T1201.34,187.46ZM1159,117.34q-18.71,0-30.8,9.21a41.46,41.46,0,0,0-15.67,23.51h88.27q-1.1-15.39-12.37-24.06T1159,117.34Z"/><path d="M1329.77,152.81l-9.51-11.24-8.92,11.24-8.83,10.41-58.82,69.34h37.4l38.63-48.94,9.77-12.38,8-9.37Zm7.69,9.06-7.69-9.06-9.51-11.24-38.9-46h-37.67l58.82,67.61,7.46,8.57,9.75,11.83,40.3,48.94h37.4Z"/><polygon class="cls-1" points="1393.84 95.61 1337.46 161.87 1329.77 152.81 1320.26 141.57 1356.72 95.61 1393.84 95.61"/></svg>