<svg xmlns="http://www.w3.org/2000/svg" viewBox="0 0 1000 1000"><defs><style>.cls-1{fill:#005b97;}</style></defs><title>SM-LightSVG</title><g id="Layer_4" data-name="Layer 4"><path d="M269.64,555.44,230,547.8q-13.22-1.15-25.87-1.17,30.39,9,65.59,9.16A.21.21,0,0,0,269.64,555.44ZM497.58,247.86,328.3,250.51h-.05c-8.73-3.47-17.84-5.4-27.28-6.86a194,194,0,0,0-29.45-2.17q-52.39,0-93.51,19.64t-64,55.29Q91,352.1,91.07,400.82t23.63,83.69q23.65,34.92,64.77,53.1a197.23,197.23,0,0,0,24.69,9q30.39,9,65.59,9.16c.58,0,1.19,0,1.77,0q53.1,0,93.48-18.2t63.31-52.39q22.9-34.17,22.92-82.21,0-28.36-11.64-50.93a140.15,140.15,0,0,0-31.65-40.4,194.7,194.7,0,0,0-24.05-18.31q19.92,7.58,43.68,14.68a226.78,226.78,0,0,0,70,9.82c.11,0,.21-.08-.58-.21V250.43C497.79,250.29,497.69,250.21,497.58,247.86ZM358.83,450.3a85.93,85.93,0,0,1-35.66,31.3q-22.55,10.9-51.65,10.9t-51.67-10.9a85.87,85.87,0,0,1-35.64-31.3q-13.11-20.37-13.1-49.48,0-29.81,13.1-50.56a84.43,84.43,0,0,1,36-31.65q22.89-10.92,51.3-10.93,29.09,0,51.65,10.93a84.34,84.34,0,0,1,35.66,32q13.1,21.11,13.1,50.19T358.83,450.3Z"/><path d="M470.54,727.82v30.46a.24.24,0,0,1-.24.24H388.73a.21.21,0,0,1-.21-.21v-14.5q0-35.59-21.25-50.13T308,679.14H209.08q-29.28,0-50.17-4.73T125.6,660.59q-12.46-9.08-18.3-21.06A59.63,59.63,0,0,1,101.44,613q0-29.06,17.92-43.6T167,550.49a250.21,250.21,0,0,1,36.56-2.61q30.6,9,66,9.14a.17.17,0,0,1-.16.08q-41.77,1.54-63.62,7.56c-10.52,2.93-17.34,7.85-20.4,14.74-4.61,10.26.35,24,10.33,29.23,5.52,2.91,12.65,4.36,21.44,4.36h104q44.67,0,78.35,10.55t52.36,35.59Q470.54,684.23,470.54,727.82Z"/><path d="M729.86,402,704.7,372.24,681.1,402l-23.36,27.55L502.1,613h99L703.27,483.5l25.85-32.75L750.21,426Zm20.37,23.91-20.36-24L704.7,372.16l-103-121.65H502l155.69,179,19.74,22.68,25.81,31.32L809.94,613h99Z"/><polygon class="cls-1" points="899.38 250.51 750.21 425.82 729.86 401.85 704.7 372.11 801.17 250.51 899.38 250.51"/></g></svg>